<svg xmlns="http://www.w3.org/2000/svg" xmlns:xlink="http://www.w3.org/1999/xlink"><defs><style>
    .sprite-symbol-usage {display: none;}
    .sprite-symbol-usage:target {display: inline;}
  </style><symbol viewBox="0 0 21 12" fill="none" id="arrow"><path d="m20 1-9.5 10L1 1" stroke="#fff" stroke-width="2" stroke-linecap="round" stroke-linejoin="round" /></symbol><symbol viewBox="0 0 40 40" fill="none" id="arrow_down"><circle r="20" transform="matrix(1 0 0 -1 20 20)" fill="#fff" /><path d="M18.752 13.348a1 1 0 0 1 1.415 0l6.363 6.364a1 1 0 1 1-1.414 1.414l-5.657-5.657-5.656 5.657a1 1 0 0 1-1.415-1.415l6.364-6.363Zm-.293 12.597v-11.89h2v11.89h-2Z" fill="#091E32" /></symbol><symbol viewBox="0 0 39 43" fill="none" id="date"><path d="M33.111 5.888H5.89A3.889 3.889 0 0 0 2 9.777v27.222a3.889 3.889 0 0 0 3.889 3.889H33.11A3.889 3.889 0 0 0 37 36.998V9.778a3.889 3.889 0 0 0-3.889-3.89ZM27.278 2v7.778M11.722 2v7.778M2 17.556h35" stroke="#fff" stroke-width="3" stroke-linecap="round" stroke-linejoin="round" /></symbol><symbol fill="none" viewBox="0 0 22 22" id="how_info"><path d="M11 21c5.523 0 10-4.477 10-10S16.523 1 11 1 1 5.477 1 11s4.477 10 10 10ZM11 15v-4M11 7h.01" stroke="#BBB" stroke-width="2" stroke-linecap="round" stroke-linejoin="round" /></symbol><symbol viewBox="0 0 258 56" fill="none" id="logo"><path d="M88.073 1.544v25.183h-5.057v-2.104c-1.313 1.583-3.213 2.375-5.702 2.375-1.72 0-3.28-.384-4.684-1.154-1.38-.769-2.466-1.866-3.258-3.292-.792-1.425-1.188-3.077-1.188-4.955 0-1.878.396-3.53 1.188-4.955.792-1.425 1.878-2.523 3.258-3.292 1.403-.77 2.964-1.154 4.684-1.154 2.33 0 4.152.735 5.464 2.206V1.544h5.295Zm-9.843 21.11c1.335 0 2.444-.452 3.326-1.357.883-.928 1.324-2.161 1.324-3.7 0-1.538-.441-2.76-1.324-3.665-.882-.928-1.99-1.392-3.326-1.392-1.357 0-2.477.464-3.36 1.392-.882.905-1.323 2.127-1.323 3.665 0 1.539.441 2.772 1.323 3.7.883.905 2.003 1.357 3.36 1.357ZM108.314 17.665c0 .068-.034.543-.102 1.425H94.398c.25 1.132.838 2.026 1.765 2.682.928.656 2.082.984 3.462.984.951 0 1.788-.136 2.512-.407a6.315 6.315 0 0 0 2.07-1.358l2.817 3.055c-1.72 1.968-4.231 2.952-7.535 2.952-2.059 0-3.88-.396-5.464-1.188-1.584-.814-2.806-1.934-3.665-3.36-.86-1.425-1.29-3.043-1.29-4.853 0-1.787.419-3.394 1.256-4.82a8.91 8.91 0 0 1 3.496-3.36c1.493-.814 3.156-1.221 4.989-1.221 1.787 0 3.405.385 4.853 1.154a8.286 8.286 0 0 1 3.394 3.326c.837 1.425 1.256 3.088 1.256 4.99Zm-9.47-5.464c-1.199 0-2.206.34-3.02 1.018-.815.679-1.312 1.607-1.493 2.783h8.994c-.181-1.154-.679-2.07-1.494-2.749-.814-.701-1.81-1.052-2.986-1.052Z" fill="#fff" /><path d="M115.436 26.998c-1.516 0-2.998-.18-4.446-.543-1.448-.384-2.602-.86-3.462-1.425l1.765-3.801c.815.52 1.799.95 2.953 1.29 1.154.316 2.285.475 3.394.475 2.24 0 3.36-.555 3.36-1.663 0-.52-.306-.894-.917-1.12-.61-.227-1.549-.419-2.817-.577-1.493-.227-2.726-.487-3.699-.781a5.857 5.857 0 0 1-2.545-1.561c-.702-.747-1.052-1.81-1.052-3.19 0-1.155.328-2.173.984-3.055.679-.905 1.651-1.607 2.919-2.104 1.289-.498 2.805-.747 4.547-.747 1.29 0 2.569.147 3.836.441 1.289.272 2.353.656 3.19 1.154l-1.765 3.767c-1.606-.905-3.36-1.357-5.261-1.357-1.131 0-1.979.158-2.545.475-.566.317-.849.724-.849 1.222 0 .566.306.961.917 1.188.611.226 1.584.44 2.919.644 1.493.25 2.715.52 3.665.815.95.272 1.776.78 2.478 1.527.701.747 1.052 1.788 1.052 3.123 0 1.131-.34 2.138-1.018 3.02-.679.883-1.675 1.573-2.987 2.07-1.29.476-2.828.713-4.616.713ZM124.778 8.468h5.295v18.259h-5.295V8.467Zm2.647-2.546c-.973 0-1.765-.283-2.375-.848a2.752 2.752 0 0 1-.917-2.105c0-.837.306-1.538.917-2.104.61-.566 1.402-.848 2.375-.848.973 0 1.765.271 2.376.814.611.543.916 1.222.916 2.037 0 .882-.305 1.617-.916 2.206-.611.565-1.403.848-2.376.848ZM151.277 8.468v15.204c0 3.35-.871 5.838-2.613 7.467-1.742 1.63-4.288 2.444-7.636 2.444-1.765 0-3.44-.215-5.023-.645-1.584-.43-2.897-1.052-3.937-1.867l2.104-3.801c.769.634 1.742 1.131 2.919 1.493 1.176.385 2.353.577 3.529.577 1.833 0 3.179-.418 4.039-1.256.882-.814 1.324-2.058 1.324-3.733v-.78c-1.38 1.515-3.304 2.273-5.77 2.273-1.674 0-3.213-.361-4.616-1.086a8.566 8.566 0 0 1-3.292-3.122c-.814-1.335-1.222-2.873-1.222-4.616 0-1.742.408-3.28 1.222-4.615a8.318 8.318 0 0 1 3.292-3.089c1.403-.747 2.942-1.12 4.616-1.12 2.647 0 4.661.871 6.041 2.613V8.468h5.023ZM141.265 21.5c1.403 0 2.546-.407 3.428-1.222.905-.837 1.358-1.923 1.358-3.258s-.453-2.41-1.358-3.224c-.882-.837-2.025-1.256-3.428-1.256s-2.557.419-3.462 1.256c-.905.815-1.357 1.89-1.357 3.224 0 1.335.452 2.421 1.357 3.258.905.815 2.059 1.222 3.462 1.222ZM164.758 8.196c2.262 0 4.084.679 5.464 2.036 1.403 1.358 2.104 3.372 2.104 6.042v10.453h-5.294v-9.639c0-1.448-.317-2.523-.951-3.224-.633-.724-1.549-1.086-2.749-1.086-1.335 0-2.398.418-3.19 1.256-.792.814-1.188 2.036-1.188 3.665v9.028h-5.294V8.467h5.057v2.139c.701-.77 1.572-1.358 2.613-1.765 1.041-.43 2.183-.645 3.428-.645ZM176.583 26.998c-.928 0-1.709-.316-2.342-.95-.634-.633-.951-1.425-.951-2.376 0-.973.317-1.753.951-2.341.633-.611 1.414-.917 2.342-.917.927 0 1.708.306 2.341.916.634.589.951 1.37.951 2.342 0 .95-.317 1.743-.951 2.376-.633.634-1.414.95-2.341.95ZM192.015 8.196c2.263 0 4.084.679 5.465 2.036 1.402 1.358 2.104 3.372 2.104 6.042v10.453h-5.295v-9.639c0-1.448-.316-2.523-.95-3.224-.634-.724-1.55-1.086-2.749-1.086-1.335 0-2.398.418-3.19 1.256-.792.814-1.188 2.036-1.188 3.665v9.028h-5.295V1.544h5.295v8.824c.701-.701 1.55-1.233 2.545-1.595.996-.385 2.082-.577 3.258-.577ZM209.203 8.196c2.828 0 5 .679 6.516 2.036 1.516 1.335 2.274 3.36 2.274 6.076v10.419h-4.955v-2.274c-.996 1.697-2.851 2.545-5.566 2.545-1.403 0-2.625-.237-3.666-.712-1.018-.476-1.799-1.132-2.342-1.969-.543-.837-.814-1.787-.814-2.85 0-1.698.633-3.033 1.9-4.005 1.29-.974 3.27-1.46 5.94-1.46h4.208c0-1.154-.35-2.036-1.052-2.647-.701-.634-1.753-.95-3.156-.95a9.07 9.07 0 0 0-2.885.475c-.928.294-1.72.701-2.376 1.221l-1.9-3.699c.995-.701 2.183-1.244 3.563-1.629a16.23 16.23 0 0 1 4.311-.577Zm-.408 15.239c.905 0 1.709-.204 2.41-.611.701-.43 1.199-1.052 1.493-1.867V19.09h-3.631c-2.172 0-3.258.713-3.258 2.139 0 .678.26 1.222.78 1.629.543.384 1.279.577 2.206.577ZM229.262 26.998c-1.946 0-3.699-.396-5.26-1.188-1.539-.814-2.749-1.934-3.632-3.36-.86-1.425-1.29-3.043-1.29-4.853 0-1.81.43-3.428 1.29-4.853.883-1.426 2.093-2.534 3.632-3.326 1.561-.815 3.314-1.222 5.26-1.222 1.924 0 3.598.407 5.023 1.222 1.448.792 2.501 1.934 3.157 3.428l-4.107 2.206c-.95-1.675-2.319-2.512-4.107-2.512-1.38 0-2.522.453-3.428 1.358-.905.905-1.357 2.138-1.357 3.7 0 1.56.452 2.794 1.357 3.699.906.905 2.048 1.357 3.428 1.357 1.81 0 3.179-.837 4.107-2.511l4.107 2.24c-.656 1.448-1.709 2.58-3.157 3.394-1.425.814-3.099 1.221-5.023 1.221ZM245.652 19.566l-2.545 2.511v4.65h-5.295V1.544h5.295v14.254l7.738-7.33h6.313l-7.603 7.738 8.281 10.52h-6.414l-5.77-7.16ZM69.605 50.909v-9.256h1.422v4.025h.94l3.326-4.025h1.832l-3.736 4.46 3.785 4.796h-1.832l-3.037-3.905h-1.278v3.905h-1.422ZM78.72 54.38V41.653h1.373v1.47h.169c.105-.16.25-.365.434-.614.189-.254.458-.479.807-.675.354-.201.832-.302 1.435-.302.779 0 1.466.195 2.06.585.595.39 1.06.942 1.393 1.657.333.715.5 1.559.5 2.531 0 .98-.167 1.83-.5 2.549-.334.715-.796 1.27-1.386 1.663-.59.39-1.272.585-2.043.585-.595 0-1.07-.099-1.428-.295-.358-.201-.633-.428-.826-.681a9.125 9.125 0 0 1-.446-.64h-.12v4.894h-1.423Zm1.397-8.1c0 .7.103 1.317.308 1.85.205.531.504.947.898 1.248.393.298.875.446 1.446.446.594 0 1.09-.156 1.488-.47.402-.317.703-.743.904-1.277a5.013 5.013 0 0 0 .308-1.796c0-.651-.1-1.237-.302-1.76-.197-.526-.496-.942-.898-1.247-.397-.31-.898-.464-1.5-.464-.579 0-1.065.146-1.458.44-.394.289-.691.695-.892 1.217-.201.518-.302 1.123-.302 1.814ZM92.941 51.102c-.892 0-1.661-.197-2.308-.59a3.964 3.964 0 0 1-1.488-1.664c-.346-.715-.519-1.547-.519-2.495 0-.948.173-1.784.519-2.507.35-.727.835-1.293 1.458-1.7.627-.409 1.358-.614 2.194-.614.481 0 .958.08 1.428.241.47.161.898.422 1.283.784.386.357.693.831.922 1.422.23.59.344 1.318.344 2.181v.603h-7.135v-1.23h5.688c0-.522-.104-.988-.313-1.398a2.362 2.362 0 0 0-.88-.97c-.377-.237-.823-.355-1.338-.355-.566 0-1.056.14-1.47.422-.41.277-.725.638-.946 1.084a3.186 3.186 0 0 0-.331 1.434v.82c0 .7.12 1.292.361 1.778.245.482.585.85 1.019 1.103.433.249.938.373 1.512.373.374 0 .711-.052 1.013-.156.305-.109.568-.27.789-.483a2.19 2.19 0 0 0 .512-.807l1.374.386a3.046 3.046 0 0 1-.73 1.229c-.34.35-.762.623-1.265.82a4.691 4.691 0 0 1-1.693.289ZM101.661 51.126a3.76 3.76 0 0 1-1.597-.331 2.74 2.74 0 0 1-1.139-.97c-.281-.427-.422-.94-.422-1.544 0-.53.105-.96.314-1.29.209-.333.488-.594.837-.782.35-.19.735-.33 1.157-.422a14.12 14.12 0 0 1 1.284-.23 57.724 57.724 0 0 1 1.368-.162c.353-.04.61-.107.771-.199.165-.092.247-.253.247-.482v-.048c0-.595-.163-1.057-.488-1.386-.321-.33-.809-.494-1.464-.494-.679 0-1.212.148-1.597.446-.386.297-.657.614-.814.952l-1.35-.482c.241-.563.563-1 .965-1.314a3.61 3.61 0 0 1 1.325-.663 5.503 5.503 0 0 1 1.423-.193c.297 0 .638.036 1.024.109.39.068.765.21 1.127.428.365.216.669.544.91.982.241.438.361 1.024.361 1.76v6.098h-1.422v-1.253h-.072c-.097.2-.257.415-.482.644a2.778 2.778 0 0 1-.898.585c-.374.16-.83.24-1.368.24Zm.217-1.278c.562 0 1.036-.11 1.422-.331a2.256 2.256 0 0 0 1.181-1.959v-1.301c-.06.072-.193.138-.398.199-.2.056-.433.106-.699.15a31.9 31.9 0 0 1-1.361.181 5.43 5.43 0 0 0-1.037.235 1.788 1.788 0 0 0-.771.476c-.193.209-.29.494-.29.856 0 .494.183.868.549 1.12.369.25.837.374 1.404.374ZM107.24 42.978v-1.325h7.52v1.325h-3.037v7.93h-1.422v-7.93h-3.061ZM118.257 48.812l4.459-7.16h1.64v9.257h-1.423v-7.16l-4.435 7.16h-1.663v-9.256h1.422v7.159ZM126.96 50.909v-9.256h3.785c.996 0 1.788.225 2.374.675.587.45.88 1.044.88 1.783 0 .563-.167.999-.5 1.308-.334.305-.762.512-1.284.62.342.049.673.17.994.362.326.193.595.458.808.796.213.333.319.743.319 1.23 0 .473-.12.897-.361 1.27-.241.374-.587.67-1.037.886-.45.218-.988.326-1.615.326h-4.363Zm1.35-1.302h3.013c.49 0 .874-.116 1.151-.35.277-.232.416-.55.416-.951 0-.478-.139-.854-.416-1.127-.277-.278-.661-.416-1.151-.416h-3.013v2.844Zm0-4.073h2.435c.381 0 .709-.053.982-.157.273-.108.482-.261.627-.458.148-.2.223-.438.223-.711 0-.39-.163-.695-.488-.916-.326-.225-.774-.338-1.344-.338h-2.435v2.58ZM137.719 45.003h2.651c1.085 0 1.914.276 2.489.826.574.55.862 1.247.862 2.091 0 .554-.129 1.059-.386 1.512a2.8 2.8 0 0 1-1.133 1.08c-.498.264-1.109.397-1.832.397h-3.881v-9.256h1.422v7.93h2.459c.563 0 1.025-.148 1.386-.446.362-.297.542-.679.542-1.145 0-.49-.18-.89-.542-1.199-.361-.31-.823-.464-1.386-.464h-2.651v-1.326Zm7.472 5.906v-9.256h1.422v9.256h-1.422Z" fill="#fff" /><path d="M0 16.97c0-8 0-12 2.485-14.485C4.97 0 8.97 0 16.97 0h22.06c8 0 12 0 14.485 2.485C56 4.97 56 8.97 56 16.97v22.06c0 8 0 12-2.485 14.485C51.03 56 47.03 56 39.03 56H16.97c-8 0-12 0-14.485-2.485C0 51.03 0 47.03 0 39.03V16.97Z" fill="url(#logo_a)" /><path d="M19.005 18.957a3 3 0 0 1 2.941-2.411h7.858c2.444 0 4.56.407 6.347 1.222 1.788.792 3.156 1.946 4.107 3.462.973 1.493 1.46 3.258 1.46 5.294 0 2.76-.634 5.181-1.901 7.263-1.245 2.082-2.987 3.688-5.227 4.82-2.24 1.13-4.808 1.697-7.704 1.697h-8.491a3 3 0 0 1-2.942-3.589l3.552-17.758Zm8.084 15.984c1.63 0 3.032-.34 4.209-1.018 1.199-.702 2.104-1.652 2.715-2.851.61-1.222.916-2.602.916-4.14 0-1.607-.498-2.84-1.493-3.7-.996-.883-2.455-1.324-4.378-1.324H25.12l-2.58 13.033h4.548Z" fill="#fff" /><defs></defs></symbol><linearGradient id="logo_a" x1="2.545" y1="52.606" x2="62.364" y2="10.182" gradientUnits="userSpaceOnUse"><stop stop-color="#3322F8" /><stop offset=".6" stop-color="#7468FF" /><stop offset="1" stop-color="#3322F8" /></linearGradient><symbol viewBox="0 0 41 41" fill="none" id="time"><path d="M20.5 39C30.717 39 39 30.717 39 20.5S30.717 2 20.5 2 2 10.283 2 20.5 10.283 39 20.5 39Z" stroke="#fff" stroke-width="3" stroke-linecap="round" stroke-linejoin="round" /><path d="M20.5 9.4v11.1l7.4 3.7" stroke="#fff" stroke-width="3" stroke-linecap="round" stroke-linejoin="round" /></symbol><symbol viewBox="0 0 336 246" fill="none" id="why_border_2"><rect x="1" y="1" width="334" height="244" rx="9" /><rect x="1" y="1" width="334" height="244" rx="9" fill="url(#why_border_2_a)" /><rect x="1" y="1" width="334" height="244" rx="9" stroke="url(#why_border_2_b)" stroke-width="2" /><defs></defs></symbol><linearGradient id="why_border_2_a" x1="0" y1="198.372" x2="206.643" y2="-16.603" gradientUnits="userSpaceOnUse"><stop stop-color="#1F1F1F" /><stop offset="1" stop-color="#2D2D2D" /></linearGradient><linearGradient id="why_border_2_b" x1="0" y1="0" x2="102.168" y2="325.915" gradientUnits="userSpaceOnUse"><stop stop-color="#3322F8" /><stop offset="0" stop-color="#3322F8" /><stop offset=".721" stop-color="#141414" /><stop offset="1" stop-color="#3322F8" /></linearGradient></defs><use id="arrow-usage" xlink:href="#arrow" class="sprite-symbol-usage" /><use id="arrow_down-usage" xlink:href="#arrow_down" class="sprite-symbol-usage" /><use id="date-usage" xlink:href="#date" class="sprite-symbol-usage" /><use id="how_info-usage" xlink:href="#how_info" class="sprite-symbol-usage" /><use id="logo-usage" xlink:href="#logo" class="sprite-symbol-usage" /><use id="time-usage" xlink:href="#time" class="sprite-symbol-usage" /><use id="why_border_2-usage" xlink:href="#why_border_2" class="sprite-symbol-usage" /></svg>