<svg width="190" height="145" viewBox="0 0 190 145" fill="none" xmlns="http://www.w3.org/2000/svg">
<g filter="url(#filter0_f_2002_2)">
<ellipse cx="94.9071" cy="72.5327" rx="46.7984" ry="17.3957" transform="rotate(-18.7763 94.9071 72.5327)" fill="#FF0000"/>
</g>
<rect x="26.554" y="51" width="119" height="34" rx="17" transform="rotate(6 26.554 51)" fill="#FF0000"/>
<path d="M47.0154 63.0531C49.2829 63.2914 50.1467 64.4481 49.9209 66.5962L49.8687 67.0935C49.7181 68.5256 49.1844 69.3946 48.1617 69.7496C49.2871 70.3304 49.6338 71.4327 49.4791 72.9046L49.3599 74.0384C49.1342 76.1865 47.8791 77.221 45.6912 76.991L42.2502 76.6294L43.7136 62.7061L47.0154 63.0531ZM46.0713 70.6963L45.0966 70.5939L44.6472 74.8703L45.9003 75.002C46.6362 75.0794 47.0695 74.783 47.1783 73.7487L47.3058 72.5354C47.4417 71.2425 47.0658 70.8008 46.0713 70.6963ZM46.7466 65.0359L45.6924 64.9251L45.3057 68.6048L46.161 68.6947C46.9765 68.7804 47.5114 68.4747 47.6284 67.3608L47.71 66.5851C47.8145 65.5905 47.5224 65.1174 46.7466 65.0359ZM50.3306 77.4787L51.794 63.5554L53.982 63.7853L52.7276 75.7196L56.3278 76.098L56.1188 78.087L50.3306 77.4787ZM63.3875 64.7739L64.1519 78.9313L61.944 78.6993L61.8316 76.1335L59.1464 75.8513L58.503 78.3376L56.494 78.1265L60.1852 64.4373L63.3875 64.7739ZM61.4177 67.0605L59.6235 73.9909L61.7318 74.2125L61.4177 67.0605ZM69.9929 74.2965L72.0615 74.5139L71.867 76.3637C71.6329 78.5915 70.3852 79.7474 68.2371 79.5216C66.0889 79.2958 65.1088 77.9058 65.343 75.678L66.1039 68.4379C66.3381 66.2102 67.5857 65.0543 69.7339 65.28C71.8821 65.5058 72.8622 66.8959 72.628 69.1236L72.4858 70.4762L70.4172 70.2587L70.574 68.767C70.6786 67.7724 70.2807 67.3485 69.5845 67.2754C68.8884 67.2022 68.4111 67.5341 68.3065 68.5286L67.5163 76.0472C67.4118 77.0417 67.8117 77.4458 68.5079 77.5189C69.2041 77.5921 69.6793 77.2801 69.7838 76.2855L69.9929 74.2965ZM77.8359 80.3696L76.2908 74.5965L75.4808 75.7984L75.0313 80.0748L72.8434 79.8449L74.3068 65.9215L76.4947 66.1515L75.8571 72.2181L79.3589 66.4526L81.5469 66.6825L77.8514 72.5685L80.0835 80.6058L77.8359 80.3696ZM87.61 69.3308L87.1689 73.5277L89.9933 73.8245L89.7843 75.8136L86.9598 75.5167L86.3556 81.2651L84.1677 81.0351L85.6311 67.1118L91.4192 67.7201L91.2102 69.7092L87.61 69.3308ZM97.8076 82.4687L95.5798 82.2346C95.4981 81.864 95.4416 81.6368 95.5607 80.5031L95.7907 78.3151C95.9266 77.0222 95.5392 76.4989 94.5446 76.3944L93.7888 76.3149L93.193 81.9837L91.005 81.7537L92.4684 67.8304L95.7702 68.1775C98.0378 68.4158 98.9016 69.5724 98.6758 71.7206L98.5608 72.8146C98.4103 74.2467 97.8546 75.1334 96.8319 75.4885C97.8777 76.0609 98.125 77.1528 97.9724 78.6048L97.7466 80.7529C97.6755 81.4292 97.6431 81.9286 97.8076 82.4687ZM95.5015 70.1602L94.4473 70.0494L93.9979 74.3259L94.8531 74.4158C95.6686 74.5015 96.2035 74.1957 96.3206 73.0818L96.4649 71.7094C96.5694 70.7149 96.2772 70.2418 95.5015 70.1602ZM99.0078 82.5949L100.471 68.6715L102.659 68.9015L101.196 82.8248L99.0078 82.5949ZM102.796 82.993L104.259 69.0697L107.72 69.4334C109.908 69.6634 110.854 70.9896 110.62 73.2173L109.88 80.2585C109.646 82.4863 108.444 83.5867 106.256 83.3567L102.796 82.993ZM107.471 71.4183L106.238 71.2887L105.193 81.2339L106.426 81.3635C107.122 81.4367 107.577 81.1225 107.682 80.128L108.443 72.8879C108.547 71.8934 108.167 71.4914 107.471 71.4183ZM117.212 70.4311L117.976 84.5885L115.769 84.3565L115.656 81.7907L112.971 81.5085L112.328 83.9948L110.319 83.7837L114.01 70.0945L117.212 70.4311ZM115.242 72.7177L113.448 79.6481L115.556 79.8697L115.242 72.7177ZM121.044 84.911L121.529 80.2964L119.743 70.6971L122.03 70.9375L123.034 77.4581L125.372 71.2887L127.46 71.5082L123.717 80.5263L123.232 85.1409L121.044 84.911Z" fill="white"/>
<defs>
<filter id="filter0_f_2002_2" x="0.242188" y="0.212891" width="189.33" height="144.64" filterUnits="userSpaceOnUse" color-interpolation-filters="sRGB">
<feFlood flood-opacity="0" result="BackgroundImageFix"/>
<feBlend mode="normal" in="SourceGraphic" in2="BackgroundImageFix" result="shape"/>
<feGaussianBlur stdDeviation="25" result="effect1_foregroundBlur_2002_2"/>
</filter>
</defs>
</svg>
