<svg width="102" height="23" viewBox="0 0 102 23" fill="none" xmlns="http://www.w3.org/2000/svg">
<path d="M34.6 0.606836V10.5002H32.6133V9.6735C32.0977 10.2957 31.3511 10.6068 30.3733 10.6068C29.6977 10.6068 29.0844 10.4557 28.5333 10.1535C27.9911 9.85128 27.5644 9.42017 27.2533 8.86017C26.9422 8.30017 26.7866 7.65128 26.7866 6.9135C26.7866 6.17573 26.9422 5.52684 27.2533 4.96684C27.5644 4.40684 27.9911 3.97573 28.5333 3.6735C29.0844 3.37128 29.6977 3.22017 30.3733 3.22017C31.2888 3.22017 32.0044 3.50906 32.52 4.08684V0.606836H34.6ZM30.7333 8.90017C31.2577 8.90017 31.6933 8.72239 32.04 8.36684C32.3866 8.00239 32.56 7.51795 32.56 6.9135C32.56 6.30906 32.3866 5.82906 32.04 5.4735C31.6933 5.10906 31.2577 4.92684 30.7333 4.92684C30.2 4.92684 29.76 5.10906 29.4133 5.4735C29.0666 5.82906 28.8933 6.30906 28.8933 6.9135C28.8933 7.51795 29.0666 8.00239 29.4133 8.36684C29.76 8.72239 30.2 8.90017 30.7333 8.90017Z" fill="white"/>
<path d="M42.5517 6.94017C42.5517 6.96684 42.5384 7.1535 42.5117 7.50017H37.0851C37.1828 7.94461 37.4139 8.29573 37.7784 8.5535C38.1428 8.81128 38.5962 8.94017 39.1384 8.94017C39.5117 8.94017 39.8406 8.88684 40.1251 8.78017C40.4184 8.66461 40.6895 8.48684 40.9384 8.24684L42.0451 9.44684C41.3695 10.2202 40.3828 10.6068 39.0851 10.6068C38.2762 10.6068 37.5606 10.4513 36.9384 10.1402C36.3162 9.82017 35.8362 9.38017 35.4984 8.82017C35.1606 8.26017 34.9917 7.62461 34.9917 6.9135C34.9917 6.21128 35.1562 5.58017 35.4851 5.02017C35.8228 4.45128 36.2806 4.01128 36.8584 3.70017C37.4451 3.38017 38.0984 3.22017 38.8184 3.22017C39.5206 3.22017 40.1562 3.37128 40.7251 3.6735C41.2939 3.97573 41.7384 4.41128 42.0584 4.98017C42.3873 5.54017 42.5517 6.1935 42.5517 6.94017ZM38.8317 4.7935C38.3606 4.7935 37.9651 4.92684 37.6451 5.1935C37.3251 5.46017 37.1295 5.82461 37.0584 6.28684H40.5917C40.5206 5.8335 40.3251 5.4735 40.0051 5.20684C39.6851 4.93128 39.2939 4.7935 38.8317 4.7935Z" fill="white"/>
<path d="M45.3499 10.6068C44.7543 10.6068 44.1721 10.5357 43.6032 10.3935C43.0343 10.2424 42.581 10.0557 42.2432 9.8335L42.9365 8.34017C43.2565 8.54461 43.6432 8.7135 44.0965 8.84684C44.5499 8.97128 44.9943 9.0335 45.4299 9.0335C46.3099 9.0335 46.7499 8.81573 46.7499 8.38017C46.7499 8.17573 46.6299 8.02906 46.3899 7.94017C46.1499 7.85128 45.781 7.77573 45.2832 7.7135C44.6965 7.62461 44.2121 7.52239 43.8299 7.40684C43.4476 7.29128 43.1143 7.08684 42.8299 6.7935C42.5543 6.50017 42.4165 6.08239 42.4165 5.54017C42.4165 5.08684 42.5454 4.68684 42.8032 4.34017C43.0699 3.98461 43.4521 3.70906 43.9499 3.5135C44.4565 3.31795 45.0521 3.22017 45.7365 3.22017C46.2432 3.22017 46.7454 3.27795 47.2432 3.3935C47.7499 3.50017 48.1676 3.65128 48.4965 3.84684L47.8032 5.32684C47.1721 4.97128 46.4832 4.7935 45.7365 4.7935C45.2921 4.7935 44.9587 4.85573 44.7365 4.98017C44.5143 5.10461 44.4032 5.26461 44.4032 5.46017C44.4032 5.68239 44.5232 5.83795 44.7632 5.92684C45.0032 6.01573 45.3854 6.10017 45.9099 6.18017C46.4965 6.27795 46.9765 6.38461 47.3499 6.50017C47.7232 6.60684 48.0476 6.80684 48.3232 7.10017C48.5987 7.3935 48.7365 7.80239 48.7365 8.32684C48.7365 8.77128 48.6032 9.16684 48.3365 9.5135C48.0699 9.86017 47.6787 10.1313 47.1632 10.3268C46.6565 10.5135 46.0521 10.6068 45.3499 10.6068Z" fill="white"/>
<path d="M49.0198 3.32684H51.0999V10.5002H49.0198V3.32684ZM50.0599 2.32684C49.6776 2.32684 49.3665 2.21573 49.1265 1.9935C48.8865 1.77128 48.7665 1.49573 48.7665 1.16684C48.7665 0.837947 48.8865 0.562392 49.1265 0.34017C49.3665 0.117947 49.6776 0.00683594 50.0599 0.00683594C50.4421 0.00683594 50.7532 0.113503 50.9932 0.326837C51.2332 0.54017 51.3532 0.806837 51.3532 1.12684C51.3532 1.4735 51.2332 1.76239 50.9932 1.9935C50.7532 2.21573 50.4421 2.32684 50.0599 2.32684Z" fill="white"/>
<path d="M59.4303 3.32684V9.30017C59.4303 10.6157 59.088 11.5935 58.4036 12.2335C57.7192 12.8735 56.7192 13.1935 55.4036 13.1935C54.7103 13.1935 54.0525 13.1091 53.4303 12.9402C52.808 12.7713 52.2925 12.5268 51.8836 12.2068L52.7103 10.7135C53.0125 10.9624 53.3947 11.1579 53.8569 11.3002C54.3192 11.4513 54.7814 11.5268 55.2436 11.5268C55.9636 11.5268 56.4925 11.3624 56.8303 11.0335C57.1769 10.7135 57.3503 10.2246 57.3503 9.56684V9.26017C56.808 9.85573 56.0525 10.1535 55.0836 10.1535C54.4258 10.1535 53.8214 10.0113 53.2703 9.72684C52.728 9.4335 52.2969 9.02461 51.9769 8.50017C51.6569 7.97573 51.4969 7.37128 51.4969 6.68684C51.4969 6.00239 51.6569 5.39795 51.9769 4.8735C52.2969 4.34906 52.728 3.94461 53.2703 3.66017C53.8214 3.36684 54.4258 3.22017 55.0836 3.22017C56.1236 3.22017 56.9147 3.56239 57.4569 4.24684V3.32684H59.4303ZM55.4969 8.44684C56.048 8.44684 56.4969 8.28684 56.8436 7.96684C57.1992 7.63795 57.3769 7.21128 57.3769 6.68684C57.3769 6.16239 57.1992 5.74017 56.8436 5.42017C56.4969 5.09128 56.048 4.92684 55.4969 4.92684C54.9458 4.92684 54.4925 5.09128 54.1369 5.42017C53.7814 5.74017 53.6036 6.16239 53.6036 6.68684C53.6036 7.21128 53.7814 7.63795 54.1369 7.96684C54.4925 8.28684 54.9458 8.44684 55.4969 8.44684Z" fill="white"/>
<path d="M64.7262 3.22017C65.6151 3.22017 66.3307 3.48684 66.8729 4.02017C67.424 4.5535 67.6995 5.34461 67.6995 6.3935V10.5002H65.6195V6.7135C65.6195 6.14461 65.4951 5.72239 65.2462 5.44684C64.9973 5.16239 64.6373 5.02017 64.1662 5.02017C63.6418 5.02017 63.224 5.18461 62.9129 5.5135C62.6018 5.8335 62.4462 6.3135 62.4462 6.9535V10.5002H60.3662V3.32684H62.3529V4.16684C62.6284 3.86461 62.9706 3.6335 63.3795 3.4735C63.7884 3.30461 64.2373 3.22017 64.7262 3.22017Z" fill="white"/>
<path d="M69.3716 10.6068C69.0072 10.6068 68.7005 10.4824 68.4516 10.2335C68.2027 9.98461 68.0783 9.6735 68.0783 9.30017C68.0783 8.91795 68.2027 8.61128 68.4516 8.38017C68.7005 8.14017 69.0072 8.02017 69.3716 8.02017C69.7361 8.02017 70.0427 8.14017 70.2916 8.38017C70.5405 8.61128 70.665 8.91795 70.665 9.30017C70.665 9.6735 70.5405 9.98461 70.2916 10.2335C70.0427 10.4824 69.7361 10.6068 69.3716 10.6068Z" fill="white"/>
<path d="M75.4345 3.22017C76.3234 3.22017 77.039 3.48684 77.5812 4.02017C78.1323 4.5535 78.4079 5.34461 78.4079 6.3935V10.5002H76.3279V6.7135C76.3279 6.14461 76.2034 5.72239 75.9545 5.44684C75.7057 5.16239 75.3456 5.02017 74.8745 5.02017C74.3501 5.02017 73.9323 5.18461 73.6212 5.5135C73.3101 5.8335 73.1545 6.3135 73.1545 6.9535V10.5002H71.0745V0.606836H73.1545V4.0735C73.4301 3.79795 73.7634 3.58906 74.1545 3.44684C74.5456 3.29573 74.9723 3.22017 75.4345 3.22017Z" fill="white"/>
<path d="M82.1866 3.22017C83.2977 3.22017 84.1511 3.48684 84.7466 4.02017C85.3422 4.54461 85.64 5.34017 85.64 6.40684V10.5002H83.6933V9.60684C83.3022 10.2735 82.5733 10.6068 81.5066 10.6068C80.9555 10.6068 80.4755 10.5135 80.0666 10.3268C79.6666 10.1402 79.36 9.88239 79.1466 9.5535C78.9333 9.22462 78.8266 8.85128 78.8266 8.4335C78.8266 7.76684 79.0755 7.24239 79.5733 6.86017C80.08 6.47795 80.8577 6.28684 81.9066 6.28684H83.56C83.56 5.8335 83.4222 5.48684 83.1466 5.24684C82.8711 4.99795 82.4577 4.8735 81.9066 4.8735C81.5244 4.8735 81.1466 4.93573 80.7733 5.06017C80.4088 5.17573 80.0977 5.33573 79.84 5.54017L79.0933 4.08684C79.4844 3.81128 79.9511 3.59795 80.4933 3.44684C81.0444 3.29573 81.6088 3.22017 82.1866 3.22017ZM82.0266 9.20684C82.3822 9.20684 82.6977 9.12684 82.9733 8.96684C83.2488 8.79795 83.4444 8.5535 83.56 8.2335V7.50017H82.1333C81.28 7.50017 80.8533 7.78017 80.8533 8.34017C80.8533 8.60684 80.9555 8.82017 81.16 8.98017C81.3733 9.13128 81.6622 9.20684 82.0266 9.20684Z" fill="white"/>
<path d="M90.0672 10.6068C89.3028 10.6068 88.6139 10.4513 88.0006 10.1402C87.3961 9.82017 86.9206 9.38017 86.5739 8.82017C86.2361 8.26017 86.0672 7.62461 86.0672 6.9135C86.0672 6.20239 86.2361 5.56684 86.5739 5.00684C86.9206 4.44684 87.3961 4.01128 88.0006 3.70017C88.6139 3.38017 89.3028 3.22017 90.0672 3.22017C90.8228 3.22017 91.4806 3.38017 92.0406 3.70017C92.6095 4.01128 93.0228 4.46017 93.2806 5.04684L91.6673 5.9135C91.2939 5.25573 90.7561 4.92684 90.0539 4.92684C89.5117 4.92684 89.0628 5.10461 88.7072 5.46017C88.3517 5.81573 88.1739 6.30017 88.1739 6.9135C88.1739 7.52684 88.3517 8.01128 88.7072 8.36684C89.0628 8.72239 89.5117 8.90017 90.0539 8.90017C90.765 8.90017 91.3028 8.57128 91.6673 7.9135L93.2806 8.7935C93.0228 9.36239 92.6095 9.80684 92.0406 10.1268C91.4806 10.4468 90.8228 10.6068 90.0672 10.6068Z" fill="white"/>
<path d="M96.5061 7.68684L95.5061 8.6735V10.5002H93.4261V0.606836H95.5061V6.20684L98.5461 3.32684H101.026L98.0394 6.36684L101.293 10.5002H98.7728L96.5061 7.68684Z" fill="white"/>
<path d="M0 6.66667C0 3.52397 0 1.95262 0.976311 0.976311C1.95262 0 3.52397 0 6.66667 0H15.3333C18.476 0 20.0474 0 21.0237 0.976311C22 1.95262 22 3.52397 22 6.66667V15.3333C22 18.476 22 20.0474 21.0237 21.0237C20.0474 22 18.476 22 15.3333 22H6.66667C3.52397 22 1.95262 22 0.976311 21.0237C0 20.0474 0 18.476 0 15.3333V6.66667Z" fill="url(#paint0_linear_398_93)"/>
<path d="M7.17315 8.91165C7.45361 7.50938 8.68485 6.5 10.1149 6.5H11.7088C12.6688 6.5 13.4999 6.66 14.2022 6.98C14.9044 7.29111 15.4422 7.74444 15.8155 8.34C16.1977 8.92667 16.3888 9.62 16.3888 10.42C16.3888 11.5044 16.1399 12.4556 15.6422 13.2733C15.1533 14.0911 14.4688 14.7222 13.5888 15.1667C12.7088 15.6111 11.6999 15.8333 10.5622 15.8333H9.44823C7.55509 15.8333 6.13521 14.1014 6.50649 12.245L7.17315 8.91165ZM10.6422 13.7267C11.2822 13.7267 11.8333 13.5933 12.2955 13.3267C12.7666 13.0511 13.1222 12.6778 13.3622 12.2067C13.6022 11.7267 13.7222 11.1844 13.7222 10.58C13.7222 9.94889 13.5266 9.46444 13.1355 9.12667C12.7444 8.78 12.171 8.60667 11.4155 8.60667H9.86882L8.85548 13.7267H10.6422Z" fill="white"/>
<path d="M29.9833 18.7417L31.4583 21H30.5416L29.2833 19.0833H28.3999V21H27.5833V16.5H28.3999V18.425H29.2833L30.4749 16.5H31.3833L29.9833 18.7417Z" fill="white"/>
<path d="M35.7775 17.0917C35.9497 17.3139 36.0775 17.5667 36.1609 17.85C36.2442 18.1333 36.2859 18.4333 36.2859 18.75C36.2859 19.4222 36.1164 19.9722 35.7775 20.4C35.5886 20.6333 35.3581 20.8139 35.0859 20.9417C34.8192 21.0639 34.5303 21.125 34.2192 21.125C33.947 21.125 33.6942 21.0833 33.4609 21C33.2275 20.9111 33.0247 20.7833 32.8525 20.6167V23H32.0442V16.5H32.7609V16.9667C32.9442 16.7778 33.1636 16.6333 33.4192 16.5333C33.6747 16.4278 33.9414 16.375 34.2192 16.375C34.5303 16.375 34.822 16.4389 35.0942 16.5667C35.3664 16.6889 35.5942 16.8639 35.7775 17.0917ZM35.1359 19.9C35.3303 19.6389 35.4275 19.2556 35.4275 18.75C35.4275 18.2444 35.3275 17.8583 35.1275 17.5917C35.0164 17.4306 34.8692 17.3111 34.6859 17.2333C34.5081 17.15 34.3109 17.1083 34.0942 17.1083C33.8942 17.1083 33.7081 17.1444 33.5359 17.2167C33.3636 17.2889 33.222 17.3972 33.1109 17.5417C32.8775 17.8194 32.7609 18.2222 32.7609 18.75C32.7609 18.9889 32.7886 19.2139 32.8442 19.425C32.9053 19.6361 32.9942 19.8139 33.1109 19.9583C33.2331 20.0972 33.3803 20.2056 33.5525 20.2833C33.7247 20.3556 33.9136 20.3917 34.1192 20.3917C34.3247 20.3917 34.5164 20.35 34.6942 20.2667C34.8775 20.1833 35.0247 20.0611 35.1359 19.9Z" fill="white"/>
<path d="M37.8171 18.975C37.8449 19.3639 37.9449 19.6694 38.1171 19.8917C38.2338 20.0417 38.381 20.1583 38.5588 20.2417C38.7366 20.3194 38.9282 20.3583 39.1338 20.3583C39.3393 20.3583 39.531 20.3194 39.7088 20.2417C39.8866 20.1583 40.0338 20.0417 40.1504 19.8917C40.1782 19.8472 40.2004 19.8083 40.2171 19.775C40.2393 19.7417 40.2588 19.7111 40.2754 19.6833L41.0754 20.025C41.0032 20.1583 40.9199 20.2833 40.8254 20.4C40.6254 20.6333 40.3838 20.8139 40.1004 20.9417C39.8171 21.0639 39.5143 21.125 39.1921 21.125C38.8477 21.125 38.5254 21.0639 38.2254 20.9417C37.9254 20.8139 37.6754 20.6278 37.4754 20.3833C37.1254 19.95 36.9504 19.4194 36.9504 18.7917C36.9504 18.1083 37.1254 17.5472 37.4754 17.1083C37.6699 16.8694 37.9116 16.6889 38.2004 16.5667C38.4949 16.4389 38.806 16.375 39.1338 16.375C39.4671 16.375 39.7782 16.4389 40.0671 16.5667C40.356 16.6889 40.6004 16.8694 40.8004 17.1083C40.9782 17.3306 41.1088 17.5833 41.1921 17.8667C41.2754 18.15 41.3171 18.4444 41.3171 18.75L41.3088 18.975H37.8171ZM39.1338 17.1417C38.9282 17.1361 38.7366 17.175 38.5588 17.2583C38.381 17.3361 38.2338 17.4528 38.1171 17.6083C37.9782 17.7917 37.8865 18.0278 37.8421 18.3167H40.4254C40.381 18.0278 40.2893 17.7917 40.1504 17.6083C40.0338 17.4528 39.8866 17.3361 39.7088 17.2583C39.531 17.175 39.3393 17.1361 39.1338 17.1417Z" fill="white"/>
<path d="M42.0708 17.3333L42.1874 17.1583C42.5763 16.6417 43.1402 16.3833 43.8791 16.3833C44.3069 16.3833 44.6791 16.4639 44.9958 16.625C45.3124 16.7806 45.5513 17.0222 45.7124 17.35C45.8402 17.6111 45.9041 17.8861 45.9041 18.175V21H45.1874V20.1417C45.1208 20.2861 45.0208 20.4222 44.8874 20.55C44.7541 20.6778 44.6124 20.7778 44.4624 20.85C44.1346 21.0278 43.793 21.1167 43.4374 21.1167C43.193 21.1167 42.9541 21.0639 42.7208 20.9583C42.493 20.8528 42.3152 20.7139 42.1874 20.5417C42.0874 20.3917 42.0124 20.2528 41.9624 20.125C41.918 19.9917 41.8958 19.8444 41.8958 19.6833C41.8958 19.4444 41.9541 19.225 42.0708 19.025C42.193 18.8194 42.3624 18.6528 42.5791 18.525C42.768 18.4194 42.9541 18.3444 43.1374 18.3C43.3208 18.2556 43.593 18.2056 43.9541 18.15C44.0708 18.1389 44.1541 18.1278 44.2041 18.1167L45.0708 17.9917C45.0541 17.8694 45.0152 17.7556 44.9541 17.65C44.893 17.5444 44.8124 17.4556 44.7124 17.3833C44.4958 17.2222 44.2291 17.1417 43.9124 17.1417C43.4624 17.1417 43.1291 17.2778 42.9124 17.55C42.8624 17.6167 42.8291 17.6639 42.8124 17.6917L42.0708 17.3333ZM44.8874 18.7L44.0874 18.8333C43.7874 18.8833 43.5458 18.9333 43.3624 18.9833C43.1791 19.0278 43.0235 19.1056 42.8958 19.2167C42.768 19.3222 42.7041 19.4667 42.7041 19.65C42.7041 19.8444 42.7846 20.0139 42.9458 20.1583C43.1069 20.3028 43.3013 20.375 43.5291 20.375C43.8235 20.375 44.1069 20.2972 44.3791 20.1417C44.6569 19.9861 44.8485 19.7778 44.9541 19.5167C45.0208 19.3778 45.0624 19.2472 45.0791 19.125C45.0958 19.0028 45.1041 18.85 45.1041 18.6667L44.8874 18.7Z" fill="white"/>
<path d="M50.5228 17.225H48.9728V21H48.1645V17.225H46.6145V16.5H50.5228V17.225Z" fill="white"/>
<path d="M55.1343 21H54.3176V17.8L52.0343 21H51.3176V16.5H52.1343V19.6417L54.4176 16.5H55.1343V21Z" fill="white"/>
<path d="M58.5103 16.5C58.9159 16.5 59.2437 16.6139 59.4937 16.8417C59.6326 16.9639 59.7381 17.1083 59.8103 17.275C59.8881 17.4361 59.927 17.6083 59.927 17.7917C59.927 18.0417 59.8576 18.2722 59.7187 18.4833C59.652 18.5611 59.5992 18.6167 59.5603 18.65C59.7103 18.7556 59.827 18.8722 59.9103 19C59.9881 19.0944 60.0492 19.2056 60.0937 19.3333C60.1381 19.4556 60.1603 19.5806 60.1603 19.7083C60.1603 19.8917 60.1187 20.0722 60.0353 20.25C59.952 20.4278 59.8381 20.5778 59.6937 20.7C59.5826 20.7944 59.4492 20.8694 59.2937 20.925C59.1381 20.975 58.9881 21 58.8437 21H56.302V16.5083L58.5103 16.5ZM57.1187 18.425H58.5103C58.7159 18.425 58.8714 18.35 58.977 18.2C59.0714 18.0833 59.1131 17.9472 59.102 17.7917C59.102 17.6361 59.0603 17.5028 58.977 17.3917C58.9159 17.3083 58.8492 17.25 58.777 17.2167C58.7048 17.1778 58.6159 17.1583 58.5103 17.1583H57.1187V18.425ZM57.1187 20.35H58.702C58.9076 20.35 59.0687 20.2806 59.1853 20.1417C59.2853 20.0139 59.3353 19.8694 59.3353 19.7083C59.3353 19.5472 59.2853 19.4056 59.1853 19.2833C59.1076 19.2056 59.0298 19.1528 58.952 19.125C58.8742 19.0972 58.7742 19.0833 58.652 19.0833H57.1187V20.35Z" fill="white"/>
<path d="M64.8921 21H64.0754V17.8L61.7921 21H61.0754V16.5H61.8921V19.6417L64.1754 16.5H64.8921V21Z" fill="white"/>
<defs>
<linearGradient id="paint0_linear_398_93" x1="1" y1="20.6667" x2="24.5" y2="4" gradientUnits="userSpaceOnUse">
<stop stop-color="#3322F8"/>
<stop offset="0.599746" stop-color="#7468FF"/>
<stop offset="1" stop-color="#3322F8"/>
</linearGradient>
</defs>
</svg>
